# xmcd
#
# Track frame offsets: 
#        150
#        29510
#        42407
#        69550
#        86000
#        103047
#        130342
#        141355
#        172460
#        188462
#        201240
#        241905
#        258982
#        291472
#
# Disc length: 4271 seconds
#
# Revision: 1
# Processed by: cddbd v1.5.2PL0 Copyright (c) Steve Scherf et al.
# Submitted via: ExactAudioCopy v0.99pb3
#
DISCID=db10ad0e
DTITLE=Shirley Horn - You Won't Forget Me
DYEAR=1991
DGENRE=Jazz
TTITLE0=The Music That Makes Me Dance
TTITLE1=Come Dance With Me
TTITLE2=Don't Let The Sun Catch You Cryin'
TTITLE3=Beautiful Love
TTITLE4=Come Back To Me
TTITLE5=Too Late Now
TTITLE6=I Just Found Out About Love
TTITLE7=It Had To Be You
TTITLE8=Soothe Me
TTITLE9=Foolin' Myself
TTITLE10=If You Go
TTITLE11=You Stepped Out Of A Dream
TTITLE12=You Won't Forget Me
TTITLE13=All My Tomorrows
EXTD=
EXTT0=
EXTT1=
EXTT2=
EXTT3=
EXTT4=
EXTT5=
EXTT6=
EXTT7=
EXTT8=
EXTT9=
EXTT10=
EXTT11=
EXTT12=
EXTT13=
PLAYORDER=
